<svg xmlns="http://www.w3.org/2000/svg" viewBox="0 0 500 500">
<style>
	.icon{
		fill:#d52b1e;
	}
</style>
<title>ErrorIcon</title>
<g id="icon">
	<path class="icon" d="M488.7,75.2l-63.8-63.9c-15.1-15.1-39.6-15.1-54.7,0L250,131.4L129.9,11.3c-15.1-15.1-39.6-15.1-54.7,0
		L11.3,75.2c-15.1,15.1-15.1,39.6,0,54.7L131.4,250L11.3,370.1c-15.1,15.1-15.1,39.6,0,54.7l63.8,63.8c15.1,15.1,39.6,15.1,54.7,0
		L250,368.6l120.1,120.1c15.1,15.1,39.6,15.1,54.7,0l63.8-63.8c15.1-15.1,15.1-39.6,0-54.7L368.6,250l120.1-120.1
		C503.8,114.8,503.8,90.3,488.7,75.2z"/>
</g>
</svg>
