<svg version="1.1" id="Laag_1" xmlns="http://www.w3.org/2000/svg" viewBox="0 0 500 500">
	<style>
	.icon{
		fill:#007CC8;
	}
	</style>
	<title>LoadingIcon</title>
	<g transform="translate(0.000000,511.000000) scale(0.100000,-0.100000)" id="icon">
		<path class="icon" d="M383.4,5092.2c-17.8-9.6-47.8-38.3-65.6-64.2c-46.4-68.3-35.5-142.1,30.1-200.8l49.2-45.1H628h232.2l8.2-64.2
			c43.7-315.6,173.5-617.5,534.1-1247.3c282.8-495.9,323.8-607.9,321-901.6c-1.4-232.2-36.9-337.5-206.3-594.2
			C1126.6,1377.8,927.1,937.9,873.8,554l-16.4-116.1H627.9H398.4l-47.8-42.3c-87.4-76.5-76.5-198.1,21.8-258.2
			C417.6,110,444.9,110,2500.9,110s2083.3,0,2128.4,27.3c98.4,60.1,109.3,181.7,21.9,258.2l-47.8,42.3h-224h-224l-8.2,51.9
			c-75.2,465.9-241.8,848.4-617.5,1422.2c-203.5,311.5-233.6,383.9-245.9,616.1c-8.2,169.4,17.8,336.1,76.5,485
			c21.8,53.3,132.5,258.2,247.2,457.7c340.2,592.9,474,897.6,521.9,1188.5l19.1,116.1l233.6,6.8l235,6.8l41,39.6
			c79.2,76.5,65.6,196.7-28.7,254.1c-45.1,27.3-72.4,27.3-2128.4,27.3C861.6,5110,410.7,5105.9,383.4,5092.2z M3805.6,4724.7
			c-15-97-109.3-363.4-180.3-516.4c-61.5-129.8-142-277.3-437.1-806c-153-273.2-209-437.1-236.3-691.3
			c-19.2-176.2-1.4-355.2,54.6-528.7c42.3-133.9,50.6-148.9,280.1-508.2c296.4-463.1,482.3-879.8,520.5-1169.4l9.6-66.9H2502.3
			c-804.7,0-1312.9,5.5-1312.9,12.3c0,27.3,43.7,218.6,69.7,308.7c75.2,251.4,256.8,603.8,516.4,1001.4
			c241.8,371.6,281.4,487.7,280.1,829.2c-1.4,355.2-42.3,474-366.1,1045.1c-289.6,510.9-430.3,821-478.2,1047.8
			c-10.9,46.4-15.1,88.8-10.9,92.9c4.1,4.1,594.3,6.8,1311.5,6.8h1303.3L3805.6,4724.7z"/>
	</g>
</svg>
