<svg xmlns="http://www.w3.org/2000/svg" viewBox="0 0 500 500">
<style>
	.icon{
        fill:#ffb612;
    }
</style>
<title>WarningIcon</title>
    <g id="icon">
    	<path class="icon" d="M228,408.7l23-0.7c14.9,0,24.6,1.1,29.1,3.4c6.8,3.2,11.7,8.1,14.9,14.9c2.3,4.5,3.4,13.8,3.4,27.7
    		c0,14-1.1,23.2-3.4,27.7c-3.2,6.8-8.1,11.7-14.9,14.9c-4.5,2.3-14,3.4-28.4,3.4l-25.7-1.4c-0.9,0-1.8-0.2-2.7-0.7
    		c-4.1-1.4-7.9-3.8-11.5-7.4c-4.1-4.1-6.8-7.9-8.1-11.5c-1.4-4.1-2-12.4-2-25c0-12.6,0.7-21,2-25c1.4-4.1,4.1-7.9,8.1-11.5
    		C216.3,412.9,221.7,410,228,408.7 M229.4,0H251c14.9,0,24.6,0.9,29.1,2.7c6.8,3.2,11.7,8.1,14.9,14.9c1.8,4.1,2.9,8.1,3.4,12.2
    		l-8.1,126.5c-5.4,81.6-8.1,123.1-8.1,124.5c-0.9,7.7-4.3,14.2-10.1,19.6c-3.6,3.2-7.7,5.6-12.2,7.4l-10.1,1.4
    		c-4.1,0-7.2-0.5-9.5-1.4c-13.1-4.5-20.5-13.5-22.3-27.1l-16.2-251c0.5-4.1,1.6-8.1,3.4-12.2c2.3-4.5,5.2-8.1,8.8-10.8
    		C218.3,3.2,223.5,0.9,229.4,0"/>
    </g>
</svg>
